<svg width="9" height="9" viewBox="0 0 9 9" fill="none" xmlns="http://www.w3.org/2000/svg">
<path d="M8.7105 6.48C8.6859 6.4605 6.9 5.1732 6.4098 5.2656C6.1758 5.307 6.042 5.4666 5.7735 5.7861C5.7303 5.8377 5.6265 5.9613 5.5458 6.0492C5.37612 5.99386 5.2106 5.92649 5.0505 5.8476C4.22416 5.4453 3.5565 4.77764 3.1542 3.9513C3.07526 3.79123 3.00789 3.6257 2.9526 3.456C3.0408 3.375 3.1644 3.2712 3.2172 3.2268C3.5352 2.9598 3.6951 2.826 3.7365 2.5914C3.8214 2.1054 2.535 0.3072 2.5215 0.291C2.46313 0.207621 2.38696 0.138259 2.2985 0.0879309C2.21004 0.0376031 2.1115 0.00756845 2.01 0C1.4886 0 0 1.9311 0 2.2563C0 2.2752 0.0273 4.1964 2.3964 6.6063C4.8039 8.9727 6.7248 9 6.7437 9C7.0692 9 9 7.5114 9 6.99C8.99251 6.88886 8.96266 6.79065 8.9126 6.70245C8.86253 6.61425 8.7935 6.53827 8.7105 6.48Z" fill="white"/>
</svg>
