<svg xmlns="http://www.w3.org/2000/svg" width="50" height="50" viewBox="0 0 50 50">
  <g id="end_call_" data-name="end_call " transform="translate(-13567 19884)">
    <g id="Group_3752" data-name="Group 3752" transform="translate(-74 2)">
      <circle id="Ellipse_14" data-name="Ellipse 14" cx="25" cy="25" r="25" transform="translate(13641 -19886)" fill="#fec1c1"/>
    </g>
    <g id="Group_3754" data-name="Group 3754" transform="translate(13593.429 -19839.477) rotate(-135)">
      <path id="phone-hangup" d="M24.808,19.34a2.755,2.755,0,0,1-.657-.081l-3.4-.873a3.286,3.286,0,0,1-2.4-3.837l.146-.721a13.315,13.315,0,0,0-7.642,0l.143.736a3.289,3.289,0,0,1-2.42,3.819l-3.417.864A2.674,2.674,0,0,1,2.3,18.156a6.618,6.618,0,0,1-.853-5.2,6.212,6.212,0,0,1,2.9-4,20.927,20.927,0,0,1,20.608.016A6.252,6.252,0,0,1,27.869,13a6.56,6.56,0,0,1-.839,5.151A2.652,2.652,0,0,1,24.808,19.34ZM14.675,11.4a15.069,15.069,0,0,1,5.222.931.936.936,0,0,1,.593,1.063l-.31,1.53a1.418,1.418,0,0,0,1.036,1.654l3.395.873a.775.775,0,0,0,.85-.32,4.688,4.688,0,0,0,.585-3.693A4.383,4.383,0,0,0,24.031,10.6a19.057,19.057,0,0,0-18.768-.017A4.34,4.34,0,0,0,3.269,13.39a4.8,4.8,0,0,0,.586,3.724.789.789,0,0,0,.852.317l3.415-.865A1.416,1.416,0,0,0,9.163,14.92l-.307-1.543a.935.935,0,0,1,.6-1.058,15.3,15.3,0,0,1,5.221-.921Z" fill="#eb5757"/>
    </g>
  </g>
</svg>
