<svg id="Group_2785" data-name="Group 2785" xmlns="http://www.w3.org/2000/svg" width="24.047" height="24.053" viewBox="0 0 24.047 24.053">
  <path id="Path_2065" data-name="Path 2065" d="M16.227,1a1.628,1.628,0,0,1,1.457.9l5.062,10.124,5.333,10.669a1.629,1.629,0,0,1-1.344,2.354l-.113,0L16.227,22.986,9.709,12.024,14.771,1.9A1.627,1.627,0,0,1,16.227,1Z" transform="translate(-4.203 -1)" fill="#fb0"/>
  <path id="Path_2066" data-name="Path 2066" d="M13.023,1a1.626,1.626,0,0,1,1.456.9l5.062,10.124-6.518,10.96L2.628,25.052a1.629,1.629,0,0,1-1.456-2.358L6.505,12.025,11.567,1.9A1.627,1.627,0,0,1,13.023,1Z" transform="translate(-0.999 -1)" fill="#ffcc48"/>
  <path id="Path_2067" data-name="Path 2067" d="M16.227,1a1.628,1.628,0,0,1,1.457.9l5.062,10.124-6.519,10.96L9.709,12.024,14.771,1.9A1.627,1.627,0,0,1,16.112,1Z" transform="translate(-4.203 -1)" fill="#ff7500"/>
</svg>
