<svg id="Group_2786" data-name="Group 2786" xmlns="http://www.w3.org/2000/svg" width="25.284" height="25.285" viewBox="0 0 25.284 25.285">
  <path id="Path_2068" data-name="Path 2068" d="M7.88.006A8.216,8.216,0,0,0,7.488,16.4c.235.02.47.035.712.035h6.668a1.566,1.566,0,0,0,1.568-1.565V8.224A8.225,8.225,0,0,0,7.881.006Z" transform="translate(0 0)" fill="#2ff1e7"/>
  <path id="Path_2069" data-name="Path 2069" d="M22.555,30.429a8.216,8.216,0,0,0,.392-16.393Q22.592,14,22.235,14H15.568A1.566,1.566,0,0,0,14,15.565v6.646a8.225,8.225,0,0,0,8.554,8.218Z" transform="translate(-5.15 -5.15)" fill="#0073e6"/>
  <path id="Path_2070" data-name="Path 2070" d="M21.585,14v6.02a1.566,1.566,0,0,1-1.568,1.565H14v-6.02A1.566,1.566,0,0,1,15.465,14l.1,0Z" transform="translate(-5.15 -5.15)" fill="#00299c"/>
</svg>
