<svg id="Group_2781" data-name="Group 2781" xmlns="http://www.w3.org/2000/svg" width="24.019" height="23.86" viewBox="0 0 24.019 23.86">
  <path id="Path_2053" data-name="Path 2053" d="M10.9,1a1.58,1.58,0,0,0-1.58,1.58V23.333A1.58,1.58,0,0,1,8.147,24.86l17.7-4.745a1.58,1.58,0,0,0,1.171-1.527V2.58A1.58,1.58,0,0,0,25.437,1Z" transform="translate(-2.999 -1)" fill="#00d924"/>
  <path id="Path_2054" data-name="Path 2054" d="M.793,20.194a1.58,1.58,0,0,0-.578,2.159l3.462,6a1.58,1.58,0,0,0,1.778.736l16.528-4.429L15.543,13.5a1.58,1.58,0,0,0-2.159-.578L.793,20.194Z" transform="translate(-0.003 -5.309)" fill="#ffcd48"/>
  <path id="Path_2055" data-name="Path 2055" d="M8.4,29.116c.047-.008.095-.019.142-.032l16.528-4.428L18.633,13.5a1.58,1.58,0,0,0-2.159-.578L9.412,17v10.64A1.58,1.58,0,0,1,8.4,29.116Z" transform="translate(-3.092 -5.309)" fill="#00c213"/>
</svg>
