<svg id="Group_2782" data-name="Group 2782" xmlns="http://www.w3.org/2000/svg" xmlns:xlink="http://www.w3.org/1999/xlink" width="25.26" height="20.694" viewBox="0 0 25.26 20.694">
  <defs>
    <linearGradient id="linear-gradient" x1="0.5" x2="0.5" y2="1" gradientUnits="objectBoundingBox">
      <stop offset="0.26" stop-color="#ff5091"/>
      <stop offset="0.91" stop-color="#e03071"/>
    </linearGradient>
  </defs>
  <path id="Path_2056" data-name="Path 2056" d="M16.984,4.359a.8.8,0,0,0-1.137.123L12.932,8.163l-9.5,11.991a6.022,6.022,0,0,1,.495.438c.038.035.071.071.107.108a5.974,5.974,0,0,1,.607.728l.059.085a5.828,5.828,0,0,1,.495.876.174.174,0,0,1,.016.028l0,0a5.914,5.914,0,0,1,.408,1.231A1.578,1.578,0,0,0,7.164,24.87H25.73a.8.8,0,0,0,.8-.819A26.82,26.82,0,0,0,16.985,4.359Z" transform="translate(-1.273 -4.176)" fill="#9a66ff"/>
  <path id="Path_2057" data-name="Path 2057" d="M17.581,15.457a21.376,21.376,0,0,0-5.9-7.271,21.817,21.817,0,0,0-7.908-3.92.815.815,0,0,0-.986.619L.059,17.617a1.606,1.606,0,0,0,.889,1.82,5.993,5.993,0,0,1,1.226.744,6.141,6.141,0,0,1,.495.438c.038.035.071.071.107.109a5.917,5.917,0,0,1,.609.726l.059.085a5.8,5.8,0,0,1,.495.876.145.145,0,0,1,.016.027l13.232-5.888a.815.815,0,0,0,.4-1.1Z" transform="translate(-0.017 -4.201)" fill="url(#linear-gradient)"/>
  <path id="Path_2058" data-name="Path 2058" d="M12.934,10.48l.3.238a21.378,21.378,0,0,1,5.608,7.034.815.815,0,0,1-.394,1.1L5.21,24.736a.2.2,0,0,0-.016-.028,5.785,5.785,0,0,0-.495-.875l-.059-.085L4.5,23.557a5.951,5.951,0,0,0-.467-.537,6.131,6.131,0,0,0-.6-.547l9.5-11.991,0,0Z" transform="translate(-1.273 -6.495)" fill="#7e24f8"/>
</svg>
