<svg id="Group_2784" data-name="Group 2784" xmlns="http://www.w3.org/2000/svg" width="25.285" height="24.653" viewBox="0 0 25.285 24.653">
  <path id="Path_2062" data-name="Path 2062" d="M16.435,2.558A1.559,1.559,0,0,0,14.874,1H1.561A1.559,1.559,0,0,0,0,2.558V21.566a1.561,1.561,0,0,0,2.2,1.424l6.44-2.858,6.872-3.054a1.558,1.558,0,0,0,.927-1.425Z" transform="translate(0 -1)" fill="#ffd748"/>
  <path id="Path_2063" data-name="Path 2063" d="M21.534,30.067A8.534,8.534,0,1,0,13,21.534,8.533,8.533,0,0,0,21.534,30.067Z" transform="translate(-4.782 -5.415)" fill="#00d924"/>
  <path id="Path_2064" data-name="Path 2064" d="M21.218,13.009v7.062a1.557,1.557,0,0,1-.927,1.424L13.528,24.5a8.54,8.54,0,0,1,7.689-11.491Z" transform="translate(-4.782 -5.418)" fill="#00ab04"/>
</svg>
