<svg xmlns="http://www.w3.org/2000/svg" width="50" height="50" viewBox="0 0 50 50">
  <g id="Group_3747" data-name="Group 3747" transform="translate(-13699 19886)">
    <circle id="Ellipse_515" data-name="Ellipse 515" cx="25" cy="25" r="25" transform="translate(13699 -19886)" fill="#fff"/>
    <g id="Group_3735" data-name="Group 3735" transform="translate(13715 -19871)">
      <path id="Path_14845" data-name="Path 14845" d="M32.053,14.01h.241a4.227,4.227,0,0,0,4.269-3.95V5.213l3.571-3.571A.758.758,0,0,0,39.063.57L36.47,3.163A4.337,4.337,0,0,0,32.294,0h-.241a4.227,4.227,0,0,0-4.269,3.95V10.06a3.5,3.5,0,0,0,.328,1.461l-.772.772a4.51,4.51,0,0,1-.545-2.122.568.568,0,1,0-1.136,0,5.687,5.687,0,0,0,.848,2.955l-2.3,2.3a.758.758,0,1,0,1.071,1.071l2.171-2.171q.125.124.258.241a6.679,6.679,0,0,0,3.893,1.649v2.653H29.242a.568.568,0,0,0,0,1.136h6.414a.568.568,0,0,0,0-1.136H32.742V16.212a6.68,6.68,0,0,0,3.893-1.649,5.909,5.909,0,0,0,2.054-4.391.568.568,0,1,0-1.136,0,4.773,4.773,0,0,1-1.671,3.54A5.492,5.492,0,0,1,32.3,15.094h-.25a5.492,5.492,0,0,1-3.583-1.382c-.071-.063-.14-.128-.207-.194l.749-.749A4.435,4.435,0,0,0,32.053,14.01Zm3.374-3.95a3.1,3.1,0,0,1-3.133,2.814h-.241a3.311,3.311,0,0,1-2.241-.91l5.615-5.615Zm-6.507,0V3.95a3.1,3.1,0,0,1,3.133-2.813h.241A3.1,3.1,0,0,1,35.427,3.95v.256L29,10.637A2.259,2.259,0,0,1,28.92,10.06Z" transform="translate(-23.99)" fill="#0060ff"/>
    </g>
  </g>
</svg>
