<svg xmlns="http://www.w3.org/2000/svg" width="50" height="50" viewBox="0 0 50 50">
  <g id="Group_3748" data-name="Group 3748" transform="translate(-13755 19886)">
    <circle id="Ellipse_516" data-name="Ellipse 516" cx="25" cy="25" r="25" transform="translate(13755 -19886)" fill="#fff"/>
    <g id="Group_3736" data-name="Group 3736" transform="translate(13766.75 -19874.25)">
      <g id="Layer_2" data-name="Layer 2" transform="translate(1.25 3.25)">
        <path id="Path_14846" data-name="Path 14846" d="M15.823,23.252H5.536A4.292,4.292,0,0,1,1.25,18.966V7.536A4.292,4.292,0,0,1,5.536,3.25H15.823a4.292,4.292,0,0,1,4.286,4.286V18.966A4.292,4.292,0,0,1,15.823,23.252ZM5.536,4.964A2.575,2.575,0,0,0,2.964,7.536V18.966a2.575,2.575,0,0,0,2.572,2.572H15.823a2.575,2.575,0,0,0,2.572-2.572V7.536a2.575,2.575,0,0,0-2.572-2.572Z" transform="translate(-1.25 -3.25)" fill="#0060ff"/>
        <path id="Path_14847" data-name="Path 14847" d="M21.679,19.292a1.992,1.992,0,0,1-1.247-.44l-3.857-3.086a.857.857,0,0,1-.325-.67V10.524a.857.857,0,0,1,.321-.669L20.429,6.77a2,2,0,0,1,3.251,1.561V17.29a1.986,1.986,0,0,1-1.133,1.8,2.012,2.012,0,0,1-.868.2Zm-3.715-4.607L21.5,17.514a.286.286,0,0,0,.464-.229V8.331a.285.285,0,0,0-.464-.223l-3.536,2.828Z" transform="translate(0.894 -2.81)" fill="#0060ff"/>
      </g>
    </g>
  </g>
</svg>
