<svg width="21" height="21" viewBox="0 0 21 21" fill="none" xmlns="http://www.w3.org/2000/svg">
<g clip-path="url(#clip0_144_444)">
<path d="M10.5 1C5.26168 1 1 5.26168 1 10.5C1 15.7383 5.26168 20 10.5 20C15.7383 20 20 15.7383 20 10.5C20 5.26168 15.7383 1 10.5 1ZM10.5 0C16.299 0 21 4.70101 21 10.5C21 16.299 16.299 21 10.5 21C4.70101 21 0 16.299 0 10.5C0 4.70101 4.70101 0 10.5 0Z" fill="#635BFF"/>
<path d="M15.3429 8.64287L10.2649 13.7179C10.0842 13.8983 9.83929 13.9996 9.58394 13.9996C9.32859 13.9996 9.08368 13.8983 8.90294 13.7179L6.28194 11.0999C6.1012 10.9193 5.99961 10.6742 5.99951 10.4187C5.99942 10.1632 6.10083 9.91812 6.28144 9.73737C6.46206 9.55663 6.70707 9.45504 6.96259 9.45494C7.21811 9.45485 7.4632 9.55626 7.64394 9.73687L9.58394 11.6759L13.9809 7.28187C14.1629 7.10832 14.4054 7.01278 14.6568 7.01569C14.9082 7.0186 15.1486 7.11971 15.3264 7.29743C15.5042 7.47515 15.6055 7.71538 15.6086 7.96678C15.6117 8.21819 15.5164 8.46084 15.3429 8.64287Z" fill="#635BFF"/>
</g>
<defs>
<clipPath id="clip0_144_444">
<rect width="21" height="21" fill="white"/>
</clipPath>
</defs>
</svg>
