<svg width="30" height="30" viewBox="0 0 30 30" fill="none" xmlns="http://www.w3.org/2000/svg">
<path d="M15 30C23.2843 30 30 23.2843 30 15C30 6.71573 23.2843 0 15 0C6.71573 0 0 6.71573 0 15C0 23.2843 6.71573 30 15 30Z" fill="#635BF6"/>
<path d="M22.3908 18.5089L20.2092 16.4151C20.0328 16.2423 19.819 16.1164 19.586 16.048C19.353 15.9795 19.1075 15.9706 18.8705 16.022C18.6334 16.0734 18.4118 16.1836 18.2243 16.3432C18.0369 16.5028 17.8891 16.7071 17.7936 16.9389C17.6518 17.272 17.4035 17.5435 17.091 17.7072C16.7785 17.8709 16.4212 17.9165 16.08 17.8364C15.1722 17.5377 14.3387 17.0346 13.6386 16.3627C12.9385 15.6909 12.3888 14.8668 12.0288 13.9489C11.9848 13.7771 11.9741 13.598 11.9973 13.4219C12.0205 13.2459 12.077 13.0764 12.1637 12.9233C12.2504 12.7702 12.3654 12.6366 12.5021 12.5302C12.6388 12.4239 12.7944 12.347 12.96 12.3039C13.1887 12.2444 13.3975 12.1211 13.5639 11.9471C13.7303 11.7732 13.8479 11.5552 13.9041 11.3167C13.9603 11.0782 13.9529 10.8283 13.8827 10.5938C13.8126 10.3594 13.6823 10.1494 13.506 9.98637L11.3268 7.89262C11.0304 7.63878 10.6586 7.5 10.275 7.5C9.89128 7.5 9.51951 7.63878 9.22316 7.89262L7.74236 9.31262C6.26156 10.8126 7.89836 14.7701 11.5608 18.2839C15.2232 21.7976 19.3524 23.4426 20.91 21.9476L22.3908 20.5276C22.5203 20.3964 22.6233 20.2395 22.6937 20.0662C22.764 19.8928 22.8003 19.7065 22.8003 19.5182C22.8003 19.33 22.764 19.1437 22.6937 18.9703C22.6233 18.797 22.5203 18.64 22.3908 18.5089Z" fill="white"/>
</svg>
